<svg version="1.1" id="Capa_1" xmlns="http://www.w3.org/2000/svg" xmlns:xlink="http://www.w3.org/1999/xlink" x="0px" y="0px"
	 viewBox="0 0 512 512" style="enable-background:new 0 0 512 512;" xml:space="preserve"><g><g><g><path d="m30.63 15.45h-.01l-3.72 4.48c-.58.69-.9 1.57-.9 2.47v.19c0 .9.36 1.77 1 2.41s1.51 1 2.41 1h-12.96c.71-2.73 2.3-5.2 4.55-7 .64.64 1.51 1 2.41 1h.19c.9 0 1.78-.32 2.47-.9l4.48-3.72h.01c.02.03.04.05.07.06z" fill="#ffeaa7"/></g><g><path d="m37.93 19.1c.69.58 1.57.9 2.47.9h.19c.9 0 1.77-.36 2.41-1 2.25 1.8 3.84 4.27 4.55 7h-12.96c.9 0 1.77-.36 2.41-1s1-1.51 1-2.41v-.19c0-.9-.32-1.78-.9-2.47l-3.72-4.48h-.01v-.01c.03-.01.05-.03.07-.06h.01z" fill="#ffeaa7"/></g><g><path d="m48 41.61c0 .13 0 .26.01.39h-.01-32-.01c.01-.13.01-.26.01-.39v-11.61h32z" fill="#ffeaa7"/></g><g><path d="m50 52h-36c.77-1.93 1.33-3.95 1.65-6h32.7c.32 2.05.88 4.07 1.65 6z" fill="#ffeaa7"/></g><g><path d="m52 53v4c0 .55-.45 1-1 1h-15-8-15c-.55 0-1-.45-1-1v-4c0-.55.45-1 1-1h1 36 1c.55 0 1 .45 1 1z" fill="#fcd770"/></g><g><path d="m48 29.4v.6h-32v-.6c0-1.16.15-2.3.45-3.4h12.96.18 4.82.18 12.96c.3 1.1.45 2.24.45 3.4z" fill="#fcd770"/></g><g><path d="m48.35 46h-32.7c.21-1.32.33-2.66.34-4h.01 32 .01c.01 1.34.13 2.68.34 4z" fill="#fcd770"/></g><g><path d="m36 58-.27 1.09c-.21.85-.71 1.58-1.37 2.1-.66.51-1.48.81-2.36.81-1.76 0-3.3-1.2-3.73-2.91l-.27-1.09z" fill="#ffc729"/></g><g><circle cx="60" cy="24" fill="#ef7385" r="2"/></g><g><circle cx="54" cy="44" fill="#ef7385" r="2"/></g><g><circle cx="10" cy="44" fill="#ef7385" r="2"/></g><g><circle cx="4" cy="24" fill="#ef7385" r="2"/></g><g><path d="m43.99 11.8c.01-.07.01-.14.01-.21v-.18c0-.9-.36-1.77-1-2.41s-1.51-1-2.41-1h-.19c-.9 0-1.78.32-2.47.9l-4.48 3.72-.01.01c-.01-.03-.04-.06-.07-.07l.01-.01 3.72-4.48c.49-.58.79-1.3.88-2.05l4.02-4.02 3 3 5-2v5l5 4-5 3v5l-6.39-1.83c.25-.48.39-1.03.39-1.58v-.18c0-.9-.36-1.77-1-2.41.59-.59.94-1.38.99-2.2z" fill="#b4dd7f"/></g><g><path d="m30.63 12.56c-.03.01-.06.04-.07.07l-.01-.01-4.48-3.72c-.69-.58-1.57-.9-2.47-.9h-.19c-.9 0-1.77.36-2.41 1s-1 1.51-1 2.41v.18c0 .07 0 .14.01.21.05.82.4 1.61.99 2.2-.64.64-1 1.51-1 2.41v.18c0 .55.14 1.1.39 1.58l-6.39 1.83v-5l-5-3 5-4v-5l5 2 3-3 4.02 4.02c.09.75.39 1.47.88 2.05l3.72 4.48z" fill="#b4dd7f"/></g><g><g><path d="m44 11.59v-.18c0-.9-.36-1.77-1-2.41s-1.51-1-2.41-1h-.19c-.9 0-1.78.32-2.47.9l-4.48 3.72-.01.01c.36.36.56.84.56 1.37s-.21 1.01-.56 1.37v.01h.01l4.48 3.72c.69.58 1.57.9 2.47.9h.19c.9 0 1.77-.36 2.41-1 .25-.25.45-.52.61-.83.25-.48.39-1.03.39-1.58v-.18c0-.9-.36-1.77-1-2.41.59-.59.94-1.38.99-2.2.01-.07.01-.14.01-.21z" fill="#ef7385"/></g><g><path d="m33.38 15.45h-.01c-.36.35-.84.55-1.37.55s-1.01-.21-1.37-.55h-.01l-3.72 4.48c-.58.69-.9 1.57-.9 2.47v.19c0 .9.36 1.77 1 2.41s1.51 1 2.41 1h.18c.9 0 1.77-.36 2.41-1 .64.64 1.51 1 2.41 1h.18c.9 0 1.77-.36 2.41-1s1-1.51 1-2.41v-.19c0-.9-.32-1.78-.9-2.47z" fill="#ef7385"/></g><g><path d="m26.9 8.07 3.72 4.48.01.01c.36-.35.84-.56 1.37-.56s1.01.21 1.37.56l.01-.01 3.72-4.48c.49-.58.79-1.3.88-2.05.01-.14.02-.28.02-.42v-.19c0-.9-.36-1.77-1-2.41s-1.51-1-2.41-1h-.18c-.9 0-1.77.36-2.41 1-.64-.64-1.51-1-2.41-1h-.18c-.9 0-1.77.36-2.41 1s-1 1.51-1 2.41v.19c0 .14.01.28.02.42.09.75.39 1.47.88 2.05z" fill="#ef7385"/></g><g><path d="m30.55 15.38h.01v-.01c-.36-.36-.56-.84-.56-1.37s.21-1.01.56-1.37l-.01-.01-4.48-3.72c-.69-.58-1.57-.9-2.47-.9h-.19c-.9 0-1.77.36-2.41 1s-1 1.51-1 2.41v.18c0 .07 0 .14.01.21.05.82.4 1.61.99 2.2-.64.64-1 1.51-1 2.41v.18c0 .55.14 1.1.39 1.58.16.31.36.58.61.83.64.64 1.51 1 2.41 1h.19c.9 0 1.78-.32 2.47-.9z" fill="#ef7385"/></g></g><g><path d="m34 14c0 .53-.21 1.01-.56 1.37v.01c-.02.03-.04.05-.07.06v.01c-.36.35-.84.55-1.37.55s-1.01-.21-1.37-.55v-.01c-.03-.01-.05-.03-.07-.06v-.01c-.36-.36-.56-.84-.56-1.37s.21-1.01.56-1.37c.01-.03.04-.06.07-.07.36-.35.84-.56 1.37-.56s1.01.21 1.37.56c.03.01.06.04.07.07.36.36.56.84.56 1.37z" fill="#ed5565"/></g></g><g><path d="m51 51h-.306c-1.119-3.011-1.694-6.164-1.694-9.385v-12.212c0-3.669-1.393-7.117-3.853-9.75l5.853 1.673v-5.759l5.748-3.449-5.748-4.598v-5.997l-5.759 2.304-3.241-3.241-3.288 3.288c-.218-.585-.55-1.126-1.005-1.581-.833-.834-1.942-1.293-3.121-1.293h-.172c-.871 0-1.703.25-2.414.717-.711-.467-1.543-.717-2.414-.717h-.172c-1.179 0-2.288.459-3.121 1.293-.455.455-.787.996-1.005 1.581l-3.288-3.288-3.241 3.241-5.759-2.304v5.997l-5.748 4.598 5.748 3.448v5.759l5.853-1.672c-2.46 2.633-3.853 6.081-3.853 9.75v12.211c0 3.222-.575 6.374-1.694 9.385h-.306c-1.103 0-2 .897-2 2v4c0 1.103.897 2 2 2h14.219l.083.332c.54 2.161 2.472 3.669 4.698 3.669s4.158-1.508 4.698-3.668l.083-.332h14.219c1.103 0 2-.897 2-2v-4c0-1.103-.897-2-2-2zm-29.293-37.707c-.449-.449-.707-1.072-.707-1.707v-.172c0-.635.258-1.258.707-1.707s1.072-.707 1.707-.707h.187c.669 0 1.32.236 1.834.664l3.802 3.169c-.023.054-.033.113-.052.168h-4.185v2h4.184c.02.055.03.114.052.168l-3.802 3.169c-.513.426-1.164.662-1.833.662h-.187c-.635 0-1.258-.258-1.707-.707s-.707-1.072-.707-1.707v-.172c0-.635.258-1.258.707-1.707l.707-.707zm25.293 27.707h-2.586l-4.536-4.536c-.558-.558-.878-1.331-.878-2.121v-.343c0-1.654 1.346-3 3-3 .551 0 1 .449 1 1s-.449 1-1 1h-1v2h1c1.654 0 3-1.346 3-3 0-.352-.072-.686-.184-1h2.184zm-21-3.686c.145.195.29.39.464.565l3.122 3.121h-7.172l3.122-3.122c.174-.174.319-.37.464-.564zm1-3.314c0-1.654 1.346-3 3-3 .551 0 1 .449 1 1s-.449 1-1 1h-1v2h1c.771 0 1.468-.301 2-.78.532.48 1.229.78 2 .78h1v-2h-1c-.551 0-1-.449-1-1s.449-1 1-1c1.654 0 3 1.346 3 3v.343c0 .79-.32 1.563-.878 2.121l-4.122 4.122-4.122-4.122c-.558-.558-.878-1.331-.878-2.121zm-1-2.969c-.008-.011-.017-.02-.026-.031h.051c-.008.011-.017.02-.025.031zm11.974-.031h.051c-.008.011-.018.02-.026.031-.007-.011-.016-.02-.025-.031zm-.438 6.878c.175-.175.319-.37.464-.565.145.195.29.39.464.565l3.122 3.122h-7.172zm-4.829-13.585-.707-.707-.707.707c-.449.449-1.072.707-1.707.707h-.172c-.635 0-1.258-.258-1.707-.707s-.707-1.072-.707-1.707v-.187c0-.669.236-1.32.664-1.834l3.169-3.802c.054.023.113.033.168.052v4.185h2v-4.184c.055-.02.114-.03.168-.052l3.169 3.802c.426.513.662 1.164.662 1.833v.187c0 .635-.258 1.258-.707 1.707s-1.072.707-1.707.707h-.172c-.635 0-1.258-.258-1.707-.707zm-.707-9.293c-.551 0-1-.449-1-1s.449-1 1-1 1 .449 1 1-.449 1-1 1zm6.679 5.679c.547.207 1.129.321 1.72.321h.187c.855 0 1.669-.248 2.371-.698 1.445 1.312 2.54 2.916 3.22 4.698h-7.899c.468-.712.722-1.543.722-2.414v-.187c0-.591-.114-1.173-.321-1.72zm4.321-9.093c0 .635-.258 1.258-.707 1.707l-.707.707.707.707c.449.449.707 1.072.707 1.707v.172c0 .635-.258 1.258-.707 1.707s-1.072.707-1.707.707h-.187c-.669 0-1.32-.236-1.834-.664l-3.802-3.168c.023-.054.033-.113.053-.168h4.184v-2h-4.184c-.02-.055-.03-.114-.052-.168l3.802-3.169c.513-.427 1.164-.663 1.833-.663h.187c.635 0 1.258.258 1.707.707s.707 1.072.707 1.707zm-21.957 8.716c.703.45 1.516.698 2.371.698h.187c.592 0 1.173-.114 1.72-.321-.207.547-.321 1.129-.321 1.72v.187c0 .871.254 1.702.721 2.414h-7.899c.681-1.782 1.776-3.386 3.221-4.698zm8.371 6.698h.172 4.828.172 12.165c.129.654.204 1.322.226 2h-29.954c.022-.678.097-1.346.226-2zm-10.23 4c-.112.314-.184.648-.184 1 0 1.654 1.346 3 3 3h1v-2h-1c-.551 0-1-.449-1-1s.449-1 1-1c1.654 0 3 1.346 3 3v.343c0 .79-.32 1.563-.878 2.121l-4.536 4.536h-2.586v-10zm27.849 12c.032.67.094 1.336.172 2h-30.41c.078-.664.141-1.33.172-2zm-2.274-36.827 4.241-1.696v4.003l4.252 3.402-4.252 2.552v4.241l-4.1-1.171c.063-.299.1-.605.1-.917v-.172c0-.871-.25-1.703-.717-2.414.314-.48.521-1.017.629-1.581l2.603-1.562-1.029-1.715-1.688 1.013c-.206-.694-.564-1.336-1.09-1.863-.834-.834-1.943-1.293-3.122-1.293h-.187c-.592 0-1.173.114-1.72.321.1-.265.178-.538.231-.817l3.09-3.09zm-17.759-.759c0-.635.258-1.258.707-1.707s1.072-.707 1.707-.707h.172c.635 0 1.258.258 1.707.707l.707.707.707-.707c.449-.449 1.072-.707 1.707-.707h.172c.635 0 1.258.258 1.707.707s.707 1.072.707 1.707v.187c0 .669-.236 1.32-.664 1.834l-3.169 3.802c-.054-.023-.113-.033-.168-.052v-4.185h-2v4.184c-.055.02-.114.03-.168.052l-3.169-3.802c-.426-.513-.662-1.164-.662-1.833zm-16.252 6.468 4.252-3.402v-4.003l4.241 1.696 2.759-2.759 3.09 3.09c.053.279.13.552.231.817-.547-.207-1.129-.321-1.72-.321h-.187c-1.179 0-2.288.459-3.121 1.293-.526.526-.884 1.169-1.09 1.863l-1.688-1.013-1.029 1.715 2.603 1.562c.108.564.314 1.101.629 1.581-.468.71-.718 1.542-.718 2.413v.172c0 .312.037.618.1.917l-4.1 1.171v-4.241zm5.747 35.118h31.009c.256 1.354.609 2.689 1.059 4h-33.127c.45-1.311.803-2.646 1.059-4zm15.505 14c-1.252 0-2.337-.817-2.705-2h5.41c-.368 1.183-1.453 2-2.705 2zm-19-4v-4h38l.001 4z"/><path d="m61 21.184v-14.184h-2v14.184c-1.161.414-2 1.514-2 2.816 0 1.654 1.346 3 3 3s3-1.346 3-3c0-1.302-.839-2.402-2-2.816zm-1 3.816c-.551 0-1-.449-1-1s.449-1 1-1 1 .449 1 1-.449 1-1 1z"/><path d="m55 41.184v-14.184h-2v14.184c-1.161.414-2 1.514-2 2.816 0 1.654 1.346 3 3 3s3-1.346 3-3c0-1.302-.839-2.402-2-2.816zm-1 3.816c-.551 0-1-.449-1-1s.449-1 1-1 1 .449 1 1-.449 1-1 1z"/><path d="m5 21.184v-14.184h-2v14.184c-1.161.414-2 1.514-2 2.816 0 1.654 1.346 3 3 3s3-1.346 3-3c0-1.302-.839-2.402-2-2.816zm-1 3.816c-.551 0-1-.449-1-1s.449-1 1-1 1 .449 1 1-.449 1-1 1z"/><path d="m13 44c0-1.302-.839-2.402-2-2.816v-14.184h-2v14.184c-1.161.414-2 1.514-2 2.816 0 1.654 1.346 3 3 3s3-1.346 3-3zm-3 1c-.551 0-1-.449-1-1s.449-1 1-1 1 .449 1 1-.449 1-1 1z"/></g></g></svg>