<svg version="1.1" id="Capa_1" xmlns="http://www.w3.org/2000/svg" xmlns:xlink="http://www.w3.org/1999/xlink" x="0px" y="0px"
	 viewBox="0 0 512 512" style="enable-background:new 0 0 512 512;" xml:space="preserve"><path d="m136 390.164062h75v-90h-120v45c0 24.851563 20.148438 45 45 45zm0 0" fill="#ffb64c"/><path d="m226 240.164062 30 90h-150c-41.351562 0-76-33.648437-76-75v-8.027343zm0 0" fill="#ff637b"/><path d="m0 195.164062c0-8.289062 6.710938-15 15-15h121c41.351562 0 75 33.648438 75 75 0 8.292969-6.710938 15-15 15h-121c-41.351562 0-75-33.648437-75-75zm0 0" fill="#ffb64c"/><path d="m376 390.164062h-75v-90h120v45c0 24.851563-20.148438 45-45 45zm0 0" fill="#ff9100"/><path d="m286 240.164062-30 90h150c41.351562 0 76-33.648437 76-75v-8.027343zm0 0" fill="#e63950"/><path d="m436 270.164062h-120c-8.289062 0-15-6.707031-15-15 0-41.351562 33.648438-75 75-75h121c8.289062 0 15 6.710938 15 15 0 41.351563-34.648438 75-76 75zm0 0" fill="#ff9100"/><path d="m226 480.164062h-30c-8.289062 0-15-6.707031-15-15 0-8.289062 6.710938-15 15-15h15v-45c0-8.289062 6.710938-15 15-15s15 6.710938 15 15v60c0 8.292969-6.710938 15-15 15zm0 0" fill="#ff637b"/><path d="m316 480.164062h-30c-8.289062 0-15-6.707031-15-15v-60c0-8.289062 6.710938-15 15-15s15 6.710938 15 15v45h15c8.289062 0 15 6.710938 15 15 0 8.292969-6.710938 15-15 15zm0 0" fill="#e63950"/><path d="m331 248.863281v-83.699219c0-41.398437-33.601562-75-75-75s-75 33.601563-75 75v83.699219c-9.601562 10.5-30 35.699219-30 66.300781 0 37.800782 54 90.601563 64.800781 100.800782 2.699219 2.699218 6.300781 4.199218 10.199219 4.199218h60c3.898438 0 7.5-1.5 10.199219-4.199218 10.800781-10.199219 64.800781-63 64.800781-100.800782 0-30.601562-20.398438-55.800781-30-66.300781zm0 0" fill="#ffd396"/><path d="m361 315.164062c0 37.800782-54 90.601563-64.800781 100.800782-2.699219 2.699218-6.300781 4.199218-10.199219 4.199218h-30v-330c41.398438 0 75 33.601563 75 75v83.699219c9.601562 10.5 30 35.699219 30 66.300781zm0 0" fill="#ffb64c"/><path d="m106 150.164062c-33.089844 0-60-26.910156-60-60 0-13.082031 4.144531-25.519531 11.96875-35.976562l36.035156-48.019531c5.652344-7.558594 18.339844-7.558594 23.992188 0l36.023437 48.019531c7.835938 10.457031 11.980469 22.894531 11.980469 35.976562 0 33.089844-26.910156 60-60 60zm0 0" fill="#ffb64c"/><path d="m106 40.152344-24.023438 32.023437c-3.910156 5.230469-5.976562 11.441407-5.976562 17.988281 0 16.539063 13.460938 30 30 30s30-13.460937 30-30c0-6.546874-2.066406-12.757812-5.992188-17.988281zm0 0" fill="#ff637b"/><path d="m106 150.164062c-8.289062 0-15-6.707031-15-15v-30c0-8.289062 6.710938-15 15-15s15 6.710938 15 15v30c0 8.292969-6.710938 15-15 15zm0 0" fill="#ffb64c"/><path d="m406 150.164062c-33.089844 0-60-26.910156-60-60 0-13.082031 4.144531-25.519531 11.96875-35.976562l36.035156-48.019531c5.652344-7.558594 18.339844-7.558594 23.992188 0l36.023437 48.019531c7.835938 10.457031 11.980469 22.894531 11.980469 35.976562 0 33.089844-26.910156 60-60 60zm0 0" fill="#ff9100"/><path d="m406 40.152344-24.023438 32.023437c-3.910156 5.226563-5.976562 11.441407-5.976562 17.988281 0 16.539063 13.460938 30 30 30s30-13.460937 30-30c0-6.546874-2.066406-12.761718-5.992188-17.988281zm0 0" fill="#e63950"/><path d="m406 150.164062c-8.289062 0-15-6.707031-15-15v-30c0-8.289062 6.710938-15 15-15s15 6.710938 15 15v30c0 8.292969-6.710938 15-15 15zm0 0" fill="#ff9100"/><path d="m271 165.164062v30c0 8.402344-6.597656 15-15 15s-15-6.597656-15-15v-30c0-8.402343 6.597656-15 15-15s15 6.597657 15 15zm0 0" fill="#ffb64c"/><path d="m271 165.164062v30c0 8.402344-6.597656 15-15 15v-60c8.402344 0 15 6.597657 15 15zm0 0" fill="#ff9100"/></svg>