<?xml version="1.0"?>
<svg version="1.1" id="Capa_1" xmlns="http://www.w3.org/2000/svg" xmlns:xlink="http://www.w3.org/1999/xlink" x="0px" y="0px"
	 viewBox="0 0 512 512" style="enable-background:new 0 0 512 512;" xml:space="preserve"><g id="filled_outline" data-name="filled outline"><rect x="352" y="24" width="96" height="200" style="fill:#e6af89"/><path d="M464,88h0a16,16,0,0,0-16-16H352V40H332.426a30,30,0,0,0-21.213,8.787L288,72H24v96H264l42.463,21.232A102.008,102.008,0,0,0,352.079,200H448a16,16,0,0,0,16-16h0a16,16,0,0,0-16-16,16,16,0,0,0,16-16h0a16,16,0,0,0-16-16,16,16,0,0,0,16-16h0a16,16,0,0,0-16-16A16,16,0,0,0,464,88Z" style="fill:#fdc9a6"/><path d="M448,168a15.987,15.987,0,0,1,11.32,4.68,16.152,16.152,0,0,1,2.54,3.32H400a8,8,0,0,1,0-16h61.86A15.994,15.994,0,0,1,448,168Z" style="fill:#fdc9a6"/><path d="M448,136a15.987,15.987,0,0,1,11.32,4.68,16.152,16.152,0,0,1,2.54,3.32H400a8,8,0,0,1,0-16h61.86A15.994,15.994,0,0,1,448,136Z" style="fill:#fdc9a6"/><path d="M459.32,108.68a16.152,16.152,0,0,1,2.54,3.32H400a8,8,0,0,1,0-16h61.86A15.994,15.994,0,0,1,448,104,15.987,15.987,0,0,1,459.32,108.68Z" style="fill:#fdc9a6"/><path d="M392,104a8,8,0,0,1,8-8h61.86A15.994,15.994,0,0,1,448,104Z" style="fill:#f6bb92"/><path d="M160,56h0a16,16,0,0,1,16,16v96h32v19.574a30,30,0,0,1-8.787,21.213L176,232V464H80V256L58.768,213.537A102.008,102.008,0,0,1,48,167.921V72A16,16,0,0,1,64,56h0A16,16,0,0,1,80,72,16,16,0,0,1,96,56h0a16,16,0,0,1,16,16,16,16,0,0,1,16-16h0a16,16,0,0,1,16,16A16,16,0,0,1,160,56Z" style="fill:#f6bb92"/><path d="M234.161,224h0a14.1,14.1,0,0,1,9.968,4.129L256,240l11.871-11.871A14.1,14.1,0,0,1,277.839,224h0a14.1,14.1,0,0,1,13.374,9.639h0a21.709,21.709,0,0,1-7.033,23.817L256,280l-28.18-22.544a21.709,21.709,0,0,1-7.033-23.817h0A14.1,14.1,0,0,1,234.161,224Z" style="fill:#e82f3e"/><path d="M392,136a8,8,0,0,1,8-8h61.86A15.994,15.994,0,0,1,448,136Z" style="fill:#f6bb92"/><path d="M392,168a8,8,0,0,1,8-8h61.86A15.994,15.994,0,0,1,448,168Z" style="fill:#f6bb92"/><path d="M144,128a8,8,0,0,0,8-8V58.14A15.994,15.994,0,0,0,144,72Z" style="fill:#e6af89"/><path d="M112,128a8,8,0,0,0,8-8V58.14A15.994,15.994,0,0,0,112,72Z" style="fill:#e6af89"/><path d="M80,128a8,8,0,0,0,8-8V58.14A15.994,15.994,0,0,0,80,72Z" style="fill:#e6af89"/><path d="M64,400h0a16,16,0,0,0,16,16h96v32h19.574a30,30,0,0,0,21.213-8.787L240,416H488V320H264l-42.463-21.232A102.008,102.008,0,0,0,175.921,288H80a16,16,0,0,0-16,16h0a16,16,0,0,0,16,16,16,16,0,0,0-16,16h0a16,16,0,0,0,16,16,16,16,0,0,0-16,16h0a16,16,0,0,0,16,16A16,16,0,0,0,64,400Z" style="fill:#fdc9a6"/><path d="M352,216v16l-21.232,42.463A102.008,102.008,0,0,0,320,320.079V416a16,16,0,0,0,16,16h0a16,16,0,0,0,16-16,16,16,0,0,0,16,16h0a16,16,0,0,0,16-16,16,16,0,0,0,16,16h0a16,16,0,0,0,16-16,16,16,0,0,0,16,16h0a16,16,0,0,0,16-16V320h32V300.426a30,30,0,0,0-8.787-21.213L448,256V216Z" style="fill:#e6af89"/><path d="M416,360a8,8,0,0,1,8,8v61.86A15.994,15.994,0,0,1,416,416Z" style="fill:#c99978"/><path d="M384,360a8,8,0,0,1,8,8v61.86A15.994,15.994,0,0,1,384,416Z" style="fill:#c99978"/><path d="M352,360a8,8,0,0,1,8,8v61.86A15.994,15.994,0,0,1,352,416Z" style="fill:#c99978"/><path d="M136,384a8,8,0,0,1-8,8H66.14A15.994,15.994,0,0,1,80,384Z" style="fill:#e6af89"/><path d="M136,352a8,8,0,0,1-8,8H66.14A15.994,15.994,0,0,1,80,352Z" style="fill:#e6af89"/><path d="M136,320a8,8,0,0,1-8,8H66.14A15.994,15.994,0,0,1,80,320Z" style="fill:#e6af89"/><path d="M488,312V300.426a37.75,37.75,0,0,0-11.13-26.869L456,252.687V206.624A23.982,23.982,0,0,0,465.874,168a23.958,23.958,0,0,0,0-32,23.958,23.958,0,0,0,0-32A23.982,23.982,0,0,0,456,65.376V24a8,8,0,0,0-8-8H352a8,8,0,0,0-8,8v8H332.427a37.753,37.753,0,0,0-26.871,11.13L284.687,64H182.624A23.982,23.982,0,0,0,144,54.126a23.958,23.958,0,0,0-32,0,23.958,23.958,0,0,0-32,0A23.982,23.982,0,0,0,41.376,64H24a8,8,0,0,0-8,8v96a8,8,0,0,0,8,8H40v16a7.994,7.994,0,0,0,.845,3.578L72,257.889v23.487A23.982,23.982,0,0,0,62.126,320a23.958,23.958,0,0,0,0,32,23.958,23.958,0,0,0,0,32A23.982,23.982,0,0,0,72,422.624V464a8,8,0,0,0,8,8h96a8,8,0,0,0,8-8v-8h11.573a37.753,37.753,0,0,0,26.871-11.13L243.313,424h70.063a24,24,0,0,0,38.633,9.882A23.957,23.957,0,0,0,384,433.874a23.958,23.958,0,0,0,32,0A23.982,23.982,0,0,0,454.624,424H488a8,8,0,0,0,8-8V320A8,8,0,0,0,488,312ZM360,32h80V64H360ZM288,80a8,8,0,0,0,5.657-2.343L316.87,54.443A21.859,21.859,0,0,1,332.427,48H344V72a8,8,0,0,0,8,8h96a8,8,0,0,1,0,16H400a8,8,0,0,0,0,16h48a8,8,0,0,1,0,16H400a8,8,0,0,0,0,16h48a8,8,0,0,1,0,16H400a8,8,0,0,0,0,16h48a8,8,0,0,1,0,16H329.889l-62.311-31.155A7.994,7.994,0,0,0,264,160H184V80Zm24.845,212.422A7.994,7.994,0,0,0,312,296v16H265.889l-62.311-31.155A7.994,7.994,0,0,0,200,280H184V235.313l20.87-20.87A37.75,37.75,0,0,0,216,187.574V176h46.111l62.311,31.155A7.994,7.994,0,0,0,328,208h16v22.111ZM32,160V80h8v80Zm24,30.111V72a8,8,0,0,1,16,0v48a8,8,0,0,0,16,0V72a8,8,0,0,1,16,0v48a8,8,0,0,0,16,0V72a8,8,0,0,1,16,0v48a8,8,0,0,0,16,0V72a8,8,0,0,1,16,0v96a8,8,0,0,0,8,8h24v11.574a21.854,21.854,0,0,1-6.444,15.556l-23.213,23.213A8,8,0,0,0,168,232v48H88V256a7.994,7.994,0,0,0-.845-3.578ZM168,456H88V424h80Zm72-48a8,8,0,0,0-5.657,2.343L211.13,433.557A21.855,21.855,0,0,1,195.573,440H184V416a8,8,0,0,0-8-8H80a8,8,0,0,1,0-16h48a8,8,0,0,0,0-16H80a8,8,0,0,1,0-16h48a8,8,0,0,0,0-16H80a8,8,0,0,1,0-16h48a8,8,0,0,0,0-16H80a8,8,0,0,1,0-16H198.111l62.311,31.155A7.994,7.994,0,0,0,264,328h48v80Zm192,16a8.009,8.009,0,0,1-8-8V368a8,8,0,0,0-16,0v48a8,8,0,0,1-16,0V368a8,8,0,0,0-16,0v48a8,8,0,0,1-16,0V368a8,8,0,0,0-16,0v48a8,8,0,0,1-16,0V297.889l31.155-62.311A7.994,7.994,0,0,0,360,232V208h80v48a8,8,0,0,0,2.343,5.657l23.213,23.213A21.854,21.854,0,0,1,472,300.426V312H448a8,8,0,0,0-8,8v96A8.009,8.009,0,0,1,432,424Zm48-16H456V328h24Z"/><path d="M277.839,216a21.952,21.952,0,0,0-15.625,6.472L256,228.687l-6.214-6.215a22.1,22.1,0,0,0-36.589,8.637,29.821,29.821,0,0,0,9.626,32.6L251,286.247a8,8,0,0,0,9.994,0L289.178,263.7a29.823,29.823,0,0,0,9.625-32.595A22.071,22.071,0,0,0,277.839,216Zm1.344,35.209L256,269.755l-23.182-18.546a13.759,13.759,0,0,1-4.441-15.04,6.1,6.1,0,0,1,10.095-2.383l11.871,11.871a8,8,0,0,0,11.314,0l11.871-11.871a6.1,6.1,0,0,1,10.095,2.383A13.76,13.76,0,0,1,279.183,251.209Z"/></g></svg>
