<svg version="1.1" id="Capa_1" xmlns="http://www.w3.org/2000/svg" xmlns:xlink="http://www.w3.org/1999/xlink" x="0px" y="0px"
	 viewBox="0 0 512 512" style="enable-background:new 0 0 512 512;" xml:space="preserve"><g><path d="m277.444 111.433h-42.88l-9.25 65.835h61.38z" fill="#7a6d79"/><path d="m286.695 177.27h-20.57l-9.247-65.835h20.57z" fill="#685e68"/><g fill="#fe7d43"><path d="m134.175 103.367h-47.17l-9.358 321.137 25.581 36.425-28.131 51.066h70.986l-19.094-47.171 16.544-40.32z"/><path d="m425.003 103.367h-47.17l-9.358 321.137 8.582 41.099-11.132 46.392h70.986l-12.261-45.613 9.711-41.882z"/></g><path d="m146.087 512h-21.969l-11.91-408.628h21.969l9.36 321.132-9.712 39.93z" fill="#fd6930"/><path d="m436.909 512h-21.969l-11.91-408.628h21.969l9.36 321.128-9.207 43.75z" fill="#fd6930"/><path d="m143.537 424.504 2.55 87.504-70.99-.013 2.55-87.491z" fill="#7a6d79"/><path d="m146.083 511.995-21.35-.007-3.166-87.496 21.97.012z" fill="#685e68"/><path d="m436.911 511.995h-70.986l2.55-87.491h65.732z" fill="#7a6d79"/><path d="m436.911 511.995-21.971.005-2.55-87.496h21.97z" fill="#685e68"/><path d="m459.908 45.654v43.703c0 4.969-3.517 9.238-8.395 10.184-44.494 8.62-104.582 14.618-146.348 18.075-32.725 2.723-65.596 2.723-98.321 0-41.766-3.457-101.855-9.455-146.348-18.075-4.878-.945-8.395-5.215-8.395-10.184v-43.703c18.729 3.445 37.498 6.441 55.651 9.038.049.01.098.02.137.02 15.246 2.484 33.066 4.422 52.896 6.735.658.077 1.708.189 2.37.265 8.744 1.005 17.486 1.881 26.252 2.602 43.558 3.583 86.886 3.508 130.373.23 9.733-.734 19.407-1.72 29.132-2.838 4.253-.489 42.706-4.957 55.21-6.994.039 0 .088-.01.137-.02 18.151-2.597 36.92-5.593 55.649-9.038z" fill="#fd9468"/><path d="m459.907 56.328v33.025c0 4.968-3.517 9.246-8.393 10.182-5.688 1.101-11.633 2.17-17.762 3.188 3.363-1.923 5.585-5.78 5.585-10.11v-32.675c6.839-1.142 13.71-2.345 20.57-3.61z" fill="#fe7d43"/><path d="m106.534 16.455c-37.861-6.441-67.215-12.779-82.289-16.218-5.738-1.309-11.201 3.049-11.201 8.934v31.845c0 4.328 3.031 8.053 7.262 8.965 51.341 11.07 105.933 18.434 149.635 23.143 57.212 6.166 114.911 6.166 172.124 0 43.702-4.71 98.295-12.073 149.635-23.143 4.231-.912 7.262-4.637 7.262-8.965v-31.844c0-5.885-5.463-10.243-11.201-8.934-15.075 3.438-44.428 9.777-82.289 16.218-98.924 16.829-200.012 16.829-298.938-.001z" fill="#7a6d79"/><path d="m498.959 9.17v31.843c0 4.33-3.024 8.053-7.261 8.969-5.544 1.193-11.118 2.345-16.713 3.456 2.098-1.779 3.404-4.505 3.404-7.508v-33.623c0-3.98-2.242-7.303-5.359-8.814 5.821-1.255 10.768-2.355 14.728-3.26 5.74-1.307 11.201 3.054 11.201 8.937z" fill="#685e68"/><path d="m479.026 212.691h-446.044c-4.181 0-7.57-3.389-7.57-7.57v-24.283c0-4.181 3.389-7.57 7.57-7.57h446.045c4.181 0 7.57 3.389 7.57 7.57v24.283c-.001 4.181-3.39 7.57-7.571 7.57z" fill="#fd9468"/><path d="m486.597 180.839v24.283c0 4.176-3.394 7.57-7.57 7.57h-20.57c4.176 0 7.57-3.394 7.57-7.57v-24.283c0-4.186-3.394-7.57-7.57-7.57h20.57c4.176.001 7.57 3.384 7.57 7.57z" fill="#fe7d43"/></g></svg>