<svg version="1.1" id="Capa_1" xmlns="http://www.w3.org/2000/svg" xmlns:xlink="http://www.w3.org/1999/xlink" x="0px" y="0px"
	 viewBox="0 0 512 512" style="enable-background:new 0 0 512 512;" xml:space="preserve"><g><g><path d="m255.924 446.27c-12.275 0-22.226-9.951-22.226-22.226v-6.997h44.452v6.997c0 12.275-9.951 22.226-22.226 22.226z" fill="#554e56"/></g><g><path d="m278.15 417.043v7.005c0 12.269-9.951 22.22-22.23 22.22-3.662 0-7.125-.885-10.17-2.468 7.155-3.682 12.05-11.145 12.05-19.752v-7.005z" fill="#433f43"/></g><g><path d="m318.974 386.508h-125.948s-15.641 13.251-14.817 30.538h155.582c.823-17.286-14.817-30.538-14.817-30.538z" fill="#7a6d79"/></g><g><path d="m333.794 417.043h-20.349c.826-17.284-14.816-30.539-14.816-30.539h20.349s15.632 13.254 14.816 30.539z" fill="#685e68"/></g><g><path d="m247.418 12.027c-19.551 28.997-70.534 96.242-132.412 112.448h140.994 140.994c-61.878-16.206-112.861-83.451-132.412-112.448-4.103-6.085-13.061-6.085-17.164 0z" fill="#b5adb6"/></g><g><path d="m396.991 124.474h-40.957c-50.838-24.439-91.417-78.341-108.373-103.487-1.055-1.572-2.448-2.736-3.99-3.493 1.363-1.941 2.607-3.771 3.751-5.463 4.1-6.09 13.055-6.09 17.155 0 19.554 28.996 70.541 96.233 132.414 112.443z" fill="#a79ba7"/></g><g><path d="m316.111 124.475c-23.597-14.691-48.276-49.075-56.922-61.798-1.545-2.273-4.889-2.272-6.432.003-8.633 12.726-33.27 47.106-56.866 61.796h120.22z" fill="#7a6d79"/></g><g><path d="m316.112 124.474h-32.688c-17.095-15.493-32.857-36.937-40.509-47.992 4.179-5.592 7.563-10.448 9.841-13.802 1.542-2.279 4.886-2.279 6.428 0 8.647 12.717 33.325 47.106 56.928 61.794z" fill="#685e68"/></g><g><path d="m318.974 386.508h-125.948v-62.482c0-34.779 28.194-62.974 62.974-62.974 34.779 0 62.974 28.194 62.974 62.974z" fill="#b5adb6"/></g><g><path d="m318.978 324.024v62.48h-20.349v-62.48c0-17.394-7.045-33.135-18.449-44.529-9.125-9.125-21.036-15.453-34.35-17.612 3.304-.548 6.707-.826 10.17-.826 17.394 0 33.136 7.045 44.529 18.438 11.394 11.393 18.449 27.135 18.449 44.529z" fill="#a79ba7"/></g><g><g><path d="m100.396 129.612h35.307v374.925h-35.307z" fill="#b5adb6"/></g><g><path d="m118.05 129.608h17.652v374.931h-17.652z" fill="#a79ba7"/></g><g><path d="m148.09 504.537h-60.081c-2.377 0-4.305-1.927-4.305-4.305v-42.855c0-2.377 1.927-4.305 4.305-4.305h60.081c2.377 0 4.305 1.927 4.305 4.305v42.855c0 2.378-1.927 4.305-4.305 4.305z" fill="#7a6d79"/></g><g><path d="m152.399 457.373v42.857c0 2.378-1.93 4.309-4.309 4.309h-20.349c2.378 0 4.309-1.93 4.309-4.309v-42.857c0-2.368-1.93-4.299-4.309-4.299h20.349c2.379 0 4.309 1.93 4.309 4.299z" fill="#685e68"/></g><g><path d="m376.292 129.612h35.307v374.925h-35.307z" fill="#b5adb6"/></g><g><path d="m393.946 129.608h17.652v374.931h-17.652z" fill="#a79ba7"/></g><g><path d="m423.987 504.537h-60.081c-2.377 0-4.305-1.927-4.305-4.305v-42.855c0-2.377 1.927-4.305 4.305-4.305h60.081c2.377 0 4.305 1.927 4.305 4.305v42.855c-.001 2.378-1.928 4.305-4.305 4.305z" fill="#7a6d79"/></g><g><path d="m428.296 457.373v42.857c0 2.378-1.93 4.309-4.309 4.309h-20.349c2.378 0 4.309-1.93 4.309-4.309v-42.857c0-2.368-1.93-4.299-4.309-4.299h20.349c2.379 0 4.309 1.93 4.309 4.299z" fill="#685e68"/></g></g><g><path d="m256 291.344c-7.783 0-14.093-6.31-14.093-14.093v-57.612h28.186v57.612c0 7.783-6.309 14.093-14.093 14.093z" fill="#554e56"/></g><g><path d="m270.09 219.642v57.614c0 7.781-6.309 14.09-14.09 14.09-2.567 0-4.975-.687-7.045-1.891 4.209-2.438 7.045-6.985 7.045-12.2v-57.614h14.09z" fill="#433f43"/></g><g><path d="m343.056 112.125h-87.056-87.056s-60.955.772-104.134-14.407c-4.189-1.473-7.615 3.591-4.672 6.916 17.428 19.69 67.002 56.008 195.862 56.697 128.86-.689 178.434-37.007 195.862-56.697 2.943-3.325-.483-8.389-4.672-6.916-43.179 15.178-104.134 14.407-104.134 14.407z" fill="#554e56"/></g><g><path d="m451.859 104.632c-17.424 19.692-66.998 56.012-195.859 56.699-44.619-.239-79.725-4.746-107.288-11.354 23.115 3.841 50.47 6.259 82.839 6.438 119.249-.647 170.594-31.792 191.411-52.032 8.348-1.781 16.568-3.97 24.23-6.667 4.189-1.473 7.612 3.592 4.667 6.916z" fill="#433f43"/></g><g><path d="m68.546 217.721v-24.933c0-2.219 1.799-4.018 4.018-4.018h366.873c2.219 0 4.018 1.799 4.018 4.018v24.933c0 2.219-1.799 4.018-4.018 4.018h-366.874c-2.218 0-4.017-1.799-4.017-4.018z" fill="#7a6d79"/></g><g><path d="m443.45 192.785v24.936c0 2.219-1.791 4.02-4.01 4.02h-20.349c2.219 0 4.02-1.801 4.02-4.02v-24.936c0-2.219-1.801-4.01-4.02-4.01h20.349c2.219 0 4.01 1.791 4.01 4.01z" fill="#685e68"/></g><path d="m458.4 95.221c-3.043-4.524-8.543-6.353-13.685-4.544-24.95 8.771-56.498 12.051-77.761 13.272-45.025-25.466-80.966-73.524-96.185-96.095-3.316-4.917-8.836-7.854-14.768-7.854-5.932 0-11.453 2.937-14.769 7.854v.001c-15.216 22.568-51.145 70.624-96.161 96.092-21.264-1.22-52.826-4.496-77.785-13.27-5.143-1.808-10.641.02-13.684 4.545-3.037 4.516-2.656 10.287.949 14.358 7.306 8.254 19.275 18.638 38.383 28.397v43.331h-20.37c-6.33 0-11.481 5.15-11.481 11.48v24.933c0 6.33 5.15 11.48 11.481 11.48h20.369v216.408h-4.924c-6.489 0-11.768 5.28-11.768 11.768v42.855c0 6.488 5.279 11.768 11.768 11.768h60.081c6.488 0 11.767-5.28 11.767-11.768v-42.855c0-6.489-5.279-11.768-11.767-11.768h-4.924v-216.408h91.278v27.784c-28.324 9.129-48.88 35.721-48.88 67.041v59.295c-5.077 5.201-15.576 17.98-14.809 34.08.189 3.979 3.471 7.108 7.455 7.108h48.038c.251 16.155 13.463 29.222 29.677 29.222s29.426-13.067 29.677-29.222h48.189c3.984 0 7.265-3.129 7.455-7.108.766-16.099-9.732-28.878-14.809-34.08v-23.141c0-4.122-3.341-7.463-7.463-7.463s-7.463 3.341-7.463 7.463v18.864h-111.021v-55.018c0-22.965 14.025-42.702 33.954-51.133v4.357c0 11.886 9.67 21.556 21.556 21.556s21.556-9.67 21.556-21.556v-4.356c19.929 8.431 33.955 28.167 33.955 51.132v1.231c0 4.122 3.341 7.463 7.463 7.463s7.463-3.341 7.463-7.463v-1.231c0-31.319-20.558-57.906-48.881-67.035v-27.791h91.273v216.408h-4.924c-6.489 0-11.768 5.28-11.768 11.768v42.855c0 6.488 5.279 11.768 11.768 11.768h60.081c6.489 0 11.768-5.28 11.768-11.768v-42.855c0-6.489-5.279-11.768-11.768-11.768h-4.924v-216.407h20.374c6.33 0 11.481-5.15 11.481-11.48v-24.933c0-6.33-5.15-11.48-11.481-11.48h-20.374v-43.326c19.11-9.76 31.081-20.146 38.388-28.401 3.605-4.073 3.987-9.844.95-14.36zm-202.476 343.585c-7.984 0-14.508-6.371-14.755-14.296h29.511c-.247 7.926-6.771 14.296-14.756 14.296zm60.047-44.835c2.674 2.777 7.527 8.55 9.509 15.613h-138.96c1.984-7.068 6.842-12.845 9.508-15.613zm-62.365-377.772c.747-1.108 1.821-1.273 2.394-1.273s1.647.165 2.393 1.272c13.714 20.34 43.548 60.408 82.288 88.464h-37.397c-17.077-16.37-32.577-38.312-37.923-46.179-2.116-3.115-5.625-4.973-9.388-4.973h-.004c-3.765.002-7.274 1.864-9.389 4.98-5.337 7.868-20.812 29.805-37.876 46.173h-37.391c38.742-28.055 68.579-68.123 82.293-88.464zm28.896 88.463h-53.024c10.973-12.086 20.446-24.849 26.498-33.502 6.06 8.651 15.546 21.415 26.526 33.502zm-137.57 355.873v36.539h-53.765v-36.539zm-37.073-14.926v-216.408h20.381v216.408zm154.771-168.358c0 3.656-2.974 6.63-6.63 6.63s-6.63-2.975-6.63-6.63v-48.05h13.26zm158.199 183.284v36.539h-53.765v-36.539zm-37.073-14.926v-216.408h20.381v216.408zm52.235-249.375v18.042h-359.982v-18.042h102.066c4.122 0 7.463-3.341 7.463-7.463s-3.341-7.463-7.463-7.463h-34.908v-25.016c28.792 7.276 65.685 12.25 112.874 12.502 47.146-.252 84.013-5.223 112.79-12.495v25.01h-155.682c-4.122 0-7.463 3.341-7.463 7.463s3.341 7.463 7.463 7.463h222.842zm-328.132-14.926v-36.489c6.195 2.544 12.978 4.989 20.381 7.285v29.204zm275.897 0v-29.198c7.402-2.295 14.186-4.741 20.381-7.285v36.483zm9.317-48.179c-35.529 13.465-81.66 20.442-137.033 20.739-55.453-.296-101.584-7.273-137.113-20.739-20.665-7.831-34.602-16.693-43.858-24.434 41.985 11.399 91.658 10.925 93.875 10.892h174.067c2.882.028 52.2.436 93.92-10.892-9.255 7.74-23.193 16.603-43.858 24.434z"/></g></svg>