<svg version="1.1" id="Capa_1" xmlns="http://www.w3.org/2000/svg" xmlns:xlink="http://www.w3.org/1999/xlink" x="0px" y="0px"
	 viewBox="0 0 512 512" style="enable-background:new 0 0 512 512;" xml:space="preserve"><g><g><path d="m502.509 265.329-249.887 131.003-245.123-122.454v-8.519c0-21.29 9.84-41.39 26.65-54.44l178.73-138.76c8.27-6.42 17.63-10.7 27.36-12.85 19.56-4.33 40.6-.04 57.21 12.87l178.44 138.74c16.8 13.05 26.62 33.14 26.62 54.41z" fill="#5294fe"/><path d="m502.509 265.329v9.909l-14.843 13.095-14.987-23.003c0-21.27-9.82-41.36-26.62-54.41l-80.46-62.56-72.13-56.08-25.85-20.1c-8.27-6.43-17.64-10.72-27.38-12.87 19.56-4.33 40.6-.04 57.21 12.87l178.44 138.74c16.8 13.049 26.62 33.139 26.62 54.409z" fill="#4188ff"/><path d="m425.819 115.519v227.94c0 12.84-10.4 23.24-23.24 23.24h-295.15c-12.83 0-23.24-10.4-23.24-23.24v-227.94c0-12.83 10.41-23.24 23.24-23.24h295.15c12.84 0 23.24 10.41 23.24 23.24z" fill="#fe99a0"/><path d="m425.819 115.519v227.94c0 12.84-10.4 23.24-23.24 23.24h-29.29c12.84 0 23.24-10.4 23.24-23.24v-227.94c0-12.83-10.4-23.24-23.24-23.24h29.29c12.84 0 23.24 10.41 23.24 23.24z" fill="#fe646f"/><path d="m471.909 248.319-5.71 3.12-201.28 109.85c-.7.39-1.43.73-2.16 1.02l-.362.143c-4.747 1.877-10.029 1.88-14.778.007-.86-.33-1.71-.72-2.53-1.17l-206.98-112.97c-13.79-7.53-30.61 2.45-30.61 18.16v197.187 17.433c0 11.28 9.413 20.69 20.69 20.69h45.477 132.024l49.364-5.54 49.695 5.54h177.07c2.1 0 4.12-.31 6.03-.89 5.39-1.64 9.85-5.42 12.39-10.36 1.45-2.83 2.27-6.04 2.27-9.44v-214.62c0-15.71-16.81-25.69-30.6-18.16z" fill="#ecf4ff"/><path d="m502.509 266.479v214.62c0 3.4-.82 6.61-2.27 9.44-2.54 4.94-7 8.72-12.39 10.36-1.91.58-3.93.89-6.03.89h-29.83c11.42 0 20.69-9.26 20.69-20.69v-214.62c0-6.11-2.55-11.36-6.48-15.04l5.71-3.12c13.79-7.53 30.6 2.45 30.6 18.16z" fill="#d2e5fd"/><path d="m205.69 467.749h98.628v34.05h-98.628z" fill="#fef6ad"/><path d="m304.319 467.749v34.05h-30.49v-22.76c0-6.23-5.05-11.29-11.29-11.29z" fill="#fef056"/><path d="m504.499 43.792v94.608c0 18.553-15.041 33.594-33.594 33.594h-94.618c-18.552 0-33.594-15.041-33.594-33.594v-94.608c0-18.552 15.041-33.594 33.594-33.594h94.618c18.552.001 33.594 15.042 33.594 33.594z" fill="#ecf4ff"/><path d="m504.499 43.789v94.61c0 18.55-15.04 33.59-33.59 33.59h-31.83c18.56 0 33.6-15.04 33.6-33.59v-94.61c0-18.55-15.04-33.59-33.6-33.59h31.83c18.55 0 33.59 15.04 33.59 33.59z" fill="#d2e5fd"/><path d="m455.739 96.469-25.95 25.95c-2.68 2.67-6.65 3.25-9.89 1.75-.9-.42-1.75-1.01-2.5-1.75l-5.68-5.68-20.27-20.27c-8.91-8.92-9.17-23.45-.32-32.43 8.03-8.15 20.65-9 29.63-2.53 1.69 1.21 3.98 1.21 5.67 0 .95-.69 1.94-1.29 2.97-1.81 2.06-1.05 4.24-1.76 6.46-2.15 7.13-1.23 14.73.93 20.2 6.49 8.85 8.98 8.59 23.51-.32 32.43z" fill="#fd4755"/><path d="m455.739 96.469-25.95 25.95c-2.68 2.67-6.65 3.25-9.89 1.75-.9-.42-1.75-1.01-2.5-1.75l-5.68-5.68 20.27-20.27c8.92-8.92 9.17-23.45.32-32.43-.88-.9-1.86-2.42-2.91-4.34 2.06-1.05 4.24-1.76 6.46-2.15 7.13-1.23 14.73.93 20.2 6.49 8.85 8.98 8.59 23.51-.32 32.43z" fill="#fb2b3a"/></g><g><path d="m144.363 163.431h61.326c4.142 0 7.5-3.358 7.5-7.5s-3.358-7.5-7.5-7.5h-61.326c-4.142 0-7.5 3.358-7.5 7.5s3.358 7.5 7.5 7.5z"/><path d="m144.363 225.674h216.515c4.142 0 7.5-3.358 7.5-7.5s-3.358-7.5-7.5-7.5h-216.515c-4.142 0-7.5 3.358-7.5 7.5s3.358 7.5 7.5 7.5z"/><path d="m144.363 263.019h216.515c4.142 0 7.5-3.358 7.5-7.5s-3.358-7.5-7.5-7.5h-216.515c-4.142 0-7.5 3.358-7.5 7.5s3.358 7.5 7.5 7.5z"/><ellipse cx="237.783" cy="155.931" rx="8.28" ry="8.28" transform="matrix(.707 -.707 .707 .707 -40.615 213.809)"/><path d="m412.099 127.719c6.22 6.22 16.72 6.27 22.989 0l25.951-25.951c11.866-11.866 12.028-31.152.363-42.992-6.979-7.086-17.002-10.306-26.82-8.616-3.885.672-7.647 2.12-10.986 4.217-12.042-7.622-27.668-5.897-37.811 4.397-11.667 11.841-11.505 31.127.361 42.994zm-15.627-58.417c2.964-3.009 6.969-4.558 10.989-4.558 3.125 0 6.26.937 8.919 2.851 4.315 3.105 10.113 3.105 14.426.001 1.896-1.363 4.027-2.257 6.329-2.655 4.97-.856 10.049.774 13.582 4.361 5.904 5.993 5.777 15.799-.284 21.859l-25.951 25.951c-.697.472-1.289.472-1.776 0l-25.951-25.951c-6.061-6.06-6.188-15.866-.283-21.859z"/><path d="m511.998 138.4v-94.608c0-22.659-18.435-41.093-41.094-41.093h-94.618c-22.659 0-41.094 18.435-41.094 41.093v40.987h-9.338l-23.807-18.511c-27.59-21.457-66.148-21.473-93.767-.035l-23.884 18.546h-75.553c-17.729 0-32.151 14.423-32.151 32.151v51.465l-47.134 36.592c-18.785 14.581-29.558 36.586-29.558 60.373v1.114 214.63c0 11.581 7.384 22.239 18.201 26.362 3.185 1.214 6.586 1.833 9.994 1.833h367.181c4.142 0 7.5-3.358 7.5-7.5s-3.358-7.5-7.5-7.5h-83.56v-26.55c0-4.142-3.358-7.5-7.5-7.5h-98.627c-4.142 0-7.5 3.358-7.5 7.5v26.55h-164.007l190.64-102.854c3.646-1.967 5.006-6.516 3.04-10.162-1.967-3.645-6.516-5.007-10.162-3.04l-201.352 108.634c-.855-1.747-1.348-3.701-1.348-5.773v-214.63c0-9.773 10.799-16.326 19.509-11.577l206.99 112.978c.006.003.012.006.018.009.004.002.008.005.013.008l234.296 126.407h-45.182c-4.142 0-7.5 3.358-7.5 7.5s3.358 7.5 7.5 7.5h51.177c11.696 0 22.446-7.536 26.478-18.506 1.138-3.097 1.717-6.39 1.717-9.688v-214.63-1.146c0-23.755-10.76-45.747-29.521-60.337l-32.801-25.497h23.211c22.658-.002 41.093-18.436 41.093-41.095zm-294.519-60.318c22.197-17.229 53.186-17.218 75.36.028l8.578 6.669h-92.563zm-108.636 21.697h233.851c4.142 0 7.5-3.358 7.5-7.5 0-.01-.001-.019-.001-.029v-48.458c0-14.388 11.706-26.093 26.094-26.093h94.618c14.388 0 26.094 11.706 26.094 26.093v94.608c0 14.388-11.706 26.094-26.094 26.094h-94.618c-14.388 0-26.094-11.706-26.094-26.093l.001-11.043c0-4.142-3.357-7.5-7.499-7.501 0 0 0 0-.001 0-4.142 0-7.5 3.357-7.5 7.499l-.001 11.044c0 22.659 18.435 41.094 41.094 41.094h42.038v89.521l-156.995 85.695c-3.963 2.16-8.688 2.161-12.641.001l-156.997-85.692v-152.089c0-9.457 7.694-17.151 17.151-17.151zm386.173 166.694v214.63c0 2.073-.494 4.029-1.35 5.777l-222.877-120.246 204.704-111.736c8.709-4.75 19.523 1.798 19.523 11.575zm-281.827 208.776h83.627v19.05h-83.627zm-192.398-235.991c4.057-8.654 10.135-16.345 17.965-22.421l37.936-29.451v73.447l-34.999-19.103c-6.547-3.572-13.975-4.383-20.902-2.472zm468.445.005c-6.935-1.917-14.372-1.107-20.926 2.468l-34.985 19.096v-73.504l37.963 29.51c7.822 6.083 13.896 13.777 17.948 22.43z"/></g></g></svg>