<?xml version="1.0" encoding="iso-8859-1"?>
<!-- Generator: Adobe Illustrator 19.0.0, SVG Export Plug-In . SVG Version: 6.00 Build 0)  -->
<svg version="1.1" id="Capa_1" xmlns="http://www.w3.org/2000/svg" xmlns:xlink="http://www.w3.org/1999/xlink" x="0px" y="0px"
	 viewBox="0 0 512 512" style="enable-background:new 0 0 512 512;" xml:space="preserve">
<rect x="312.5" y="383.5" style="fill:#B4CAD1;" width="52" height="87"/>
<rect x="312.5" y="383.5" style="fill:#9AB9C1;" width="26" height="87"/>
<path style="fill:#91B0B7;" d="M382.5,358.5v43.3c0,3.7-3,6.7-6.7,6.7h-11.3h-52h-11.3c-3.7,0-6.7-3-6.7-6.7v-43.3H382.5z"/>
<path style="fill:#779AA0;" d="M328,401.8v-43.3h-33.5v43.3c0,3.7,3,6.7,6.7,6.7h11.3h22.2C331,408.5,328,405.5,328,401.8z"/>
<path style="fill:#91B0B7;" d="M409.68,143.5h-9.18H266.142H243.5v208h95h154v-113v-12.18C492.5,180.58,455.42,143.5,409.68,143.5z"
	/>
<path style="fill:#B4CAD1;" d="M243.5,143.5c-15.54,0-30.21,3.73-43.16,10.35c-12.94,6.61-24.18,16.11-32.84,27.65l-19,133v38h154
	h36v-114C338.5,186.03,295.97,143.5,243.5,143.5z"/>
<path style="fill:#739AA0;" d="M504.5,348.451v15.1c0,3.29-2.66,5.95-5.95,5.95H382.5h-88H143.45c-3.29,0-5.95-2.66-5.95-5.95v-15.1
	c0-3.29,2.66-5.95,5.95-5.95h5.05h154h36h154h6.05C501.84,342.5,504.5,345.16,504.5,348.451z"/>
<path style="fill:#EA3B38;" d="M465.5,48.24v24.52c0,3.72-3.02,6.74-6.74,6.74H400.5v-38h58.26C462.48,41.5,465.5,44.52,465.5,48.24
	z"/>
<path style="fill:#FFCF59;" d="M273.67,181.5h-2.45H167.5h-85h-0.17c-3.77,0-6.83,3.06-6.83,6.83V297.8v9.87
	c0,3.77,3.06,6.83,6.83,6.83h66.17h125.17c3.77,0,6.83-3.06,6.83-6.83v-9.87V188.33C280.5,184.56,277.44,181.5,273.67,181.5z"/>
<g>
	<path style="fill:#FFC033;" d="M82.5,181.5h85h103.72l-88.563,93.562c-2.807,2.965-7.523,2.981-10.35,0.035L82.5,181.5z"/>
	<path style="fill:#FFC033;" d="M172.173,297.5h-66.17c-3.77,0-6.83-3.06-6.83-6.83v-9.87v-99.3H82.5h-0.17
		c-3.77,0-6.83,3.06-6.83,6.83V297.8v9.87c0,3.77,3.06,6.83,6.83,6.83h66.17h125.17c3.77,0,6.83-3.06,6.83-6.83v-9.87v-0.3H172.173z
		"/>
</g>
<path style="fill:#F2B25F;" d="M280.5,297.8v9.87c0,3.77-3.06,6.83-6.83,6.83H148.5H82.33c-3.77,0-6.83-3.06-6.83-6.83v-9.87
	l79.79-51.17l44.24-0.11l79.97,51.28H280.5z"/>
<g>
	<path style="fill:#E89F4F;" d="M199.53,246.52l-44.24,0.11l-6.375,4.088l23.392,24.379c2.827,2.946,7.543,2.931,10.35-0.035
		l23.186-24.495L199.53,246.52z"/>
	<path style="fill:#E89F4F;" d="M279.032,297.5H172.173h-66.17c-3.77,0-6.83-3.06-6.83-6.83v-8.052L75.5,297.8v9.87
		c0,3.77,3.06,6.83,6.83,6.83h66.17h125.17c3.77,0,6.83-3.06,6.83-6.83v-9.87h-1L279.032,297.5z"/>
</g>
<path style="fill:#F2AA0A;" d="M155.29,246.63L82.5,181.5h85h103.72l-71.69,65.02l-20.016,18.154
	c-1.145,1.038-2.888,1.044-4.04,0.014L155.29,246.63z"/>
<path d="M500,335.081v-108.76C500,176.518,459.482,136,409.679,136H408V87h57.5c4.143,0,7.5-3.357,7.5-7.5v-38
	c0-4.143-3.357-7.5-7.5-7.5h-65c-4.143,0-7.5,3.357-7.5,7.5V136l0,0H243.5c-31.272,0-60.086,13.804-79.655,38h-81.51
	c-0.072,0-0.142,0.01-0.214,0.011c-0.022,0.001-0.045,0.002-0.067,0.003C74.28,174.166,68,180.525,68,188.335v119.33
	C68,315.569,74.431,322,82.335,322H141v13.234c-6.249,1.155-11,6.635-11,13.212v15.107c0,7.414,6.032,13.446,13.446,13.446H287
	v24.805c0,7.827,6.368,14.195,14.195,14.195H305v47h-2.5c-4.143,0-7.5,3.357-7.5,7.5s3.357,7.5,7.5,7.5h74
	c4.143,0,7.5-3.357,7.5-7.5s-3.357-7.5-7.5-7.5H372v-47h3.805c7.827,0,14.195-6.368,14.195-14.195V377h108.554
	c7.414,0,13.446-6.032,13.446-13.446v-15.107C512,341.521,506.736,335.805,500,335.081z M458,72h-50V49h50V72z M273,284.719
	l-61.175-39.226L273,190.009V284.719z M177.466,256.405L102.13,189h149.653l0,0C251.444,189.258,177.762,256.085,177.466,256.405
	L177.466,256.405 M83,192.011l59.942,53.632L83,284.078V192.011z M195,322c4.142,0,7.5-3.357,7.5-7.5s-3.358-7.5-7.5-7.5H83v-5.104
	l71.543-45.873l17.956,16.066c1.424,1.274,3.212,1.911,5.001,1.911c1.805,0,3.61-0.648,5.039-1.944l17.777-16.124L273,302.537V307
	h-48c-4.142,0-7.5,3.357-7.5,7.5s3.358,7.5,7.5,7.5h48.665c7.904,0,14.335-6.431,14.335-14.335v-119.33
	c0-7.904-6.431-14.335-14.335-14.335H184.34c16.001-14.764,36.848-23,59.16-23c48.248,0,87.5,39.252,87.5,87.5V335l0,0H156v-13H195z
	 M357,463h-37v-47h37V463z M375,401L375,401h-73l0,0v-24h73V401z M497,362L497,362H145l0,0v-12l0,0h261l0,0l0,0
	c4.143,0,7.5-3.357,7.5-7.5s-3.357-7.5-7.5-7.5h-60v-96.5c0-36.996-19.704-69.475-49.167-87.5H393v37.5c0,4.143,3.357,7.5,7.5,7.5
	s7.5-3.357,7.5-7.5V151h1.679C451.211,151,485,184.789,485,226.321V335h-49c-4.143,0-7.5,3.357-7.5,7.5s3.357,7.5,7.5,7.5h61l0,0
	V362z"/>
<path d="M37,249.5c0-4.143-3.358-7.5-7.5-7.5h-22c-4.142,0-7.5,3.357-7.5,7.5s3.358,7.5,7.5,7.5h22C33.642,257,37,253.643,37,249.5z
	"/>
<path d="M51.5,290h-22c-4.142,0-7.5,3.357-7.5,7.5s3.358,7.5,7.5,7.5h22c4.142,0,7.5-3.357,7.5-7.5S55.642,290,51.5,290z"/>
<path d="M51.5,194h-22c-4.142,0-7.5,3.357-7.5,7.5s3.358,7.5,7.5,7.5h22c4.142,0,7.5-3.357,7.5-7.5S55.642,194,51.5,194z"/>
<g>
</g>
<g>
</g>
<g>
</g>
<g>
</g>
<g>
</g>
<g>
</g>
<g>
</g>
<g>
</g>
<g>
</g>
<g>
</g>
<g>
</g>
<g>
</g>
<g>
</g>
<g>
</g>
<g>
</g>
</svg>
