<svg xmlns="http://www.w3.org/2000/svg" height="512pt" version="1.1" viewBox="0 0 512.00036 512" width="512pt">
<g id="surface1">
<path d="M 509.421875 6.589844 C 506.632812 2.46875 501.976562 0 497 0 L 15 0 C 10.023438 0 5.371094 2.46875 2.578125 6.589844 C -0.210938 10.710938 -0.777344 15.949219 1.074219 20.570312 L 18.289062 63.613281 C 27.910156 87.664062 54.242188 106.917969 80.328125 109.914062 L 80.328125 177.1875 C 53.191406 180.628906 32.132812 203.84375 32.132812 231.898438 C 32.132812 259.957031 53.191406 283.171875 80.328125 286.609375 L 80.328125 497 C 80.328125 505.285156 87.046875 512 95.328125 512 L 175.664062 512 C 183.949219 512 190.664062 505.285156 190.664062 497 L 190.664062 287.066406 L 321.328125 287.066406 L 321.328125 497 C 321.328125 505.285156 328.046875 512 336.328125 512 L 416.664062 512 C 424.949219 512 431.664062 505.285156 431.664062 497 L 431.664062 286.609375 C 458.804688 283.175781 479.867188 259.957031 479.867188 231.898438 C 479.867188 203.839844 458.804688 180.625 431.664062 177.1875 L 431.664062 109.914062 C 457.75 106.917969 484.089844 87.664062 493.710938 63.609375 L 510.925781 20.570312 C 512.777344 15.949219 512.210938 10.710938 509.421875 6.589844 Z M 241 110.332031 L 241 176.730469 L 190.664062 176.730469 L 190.664062 110.332031 Z M 321.328125 110.332031 L 321.328125 176.730469 L 271 176.730469 L 271 110.332031 Z M 401.664062 176.734375 L 351.328125 176.734375 L 351.328125 110.335938 L 401.664062 110.335938 Z M 160.664062 176.734375 L 110.328125 176.734375 L 110.328125 110.335938 L 160.664062 110.335938 Z M 160.664062 482 L 110.328125 482 L 110.328125 287.066406 L 160.664062 287.066406 Z M 351.328125 482 L 351.328125 287.066406 L 401.664062 287.066406 L 401.664062 482 Z M 449.867188 231.898438 C 449.867188 245.777344 438.578125 257.066406 424.699219 257.066406 L 416.722656 257.066406 C 416.703125 257.066406 416.683594 257.0625 416.664062 257.0625 L 336.328125 257.0625 C 336.308594 257.0625 336.292969 257.066406 336.273438 257.066406 L 87.300781 257.066406 C 73.421875 257.066406 62.132812 245.777344 62.132812 231.898438 C 62.132812 218.023438 73.421875 206.734375 87.300781 206.734375 L 424.699219 206.734375 C 438.578125 206.734375 449.867188 218.023438 449.867188 231.898438 Z M 465.855469 52.46875 C 459.921875 67.3125 440.6875 80.332031 424.699219 80.332031 L 87.300781 80.332031 C 71.3125 80.332031 52.082031 67.3125 46.144531 52.46875 L 37.15625 30 L 474.84375 30 Z M 465.855469 52.46875 " style=" stroke:none;fill-rule:nonzero;fill:rgb(0%,0%,0%);fill-opacity:1;" />
</g>
</svg>