<svg id="Flat" height="512" viewBox="0 0 512 512" width="512" xmlns="http://www.w3.org/2000/svg"><g id="_02_copy_4" data-name="02 copy 4"><g><path d="m392 56h32v376h-32z" fill="#fa4231"/><path d="m88 56h32v376h-32z" fill="#fa4231"/><path d="m472 56-8 40h-416l-8-40z" fill="#faa231"/><path d="m448 176h-384l-8-32 32 8h336l32-8z" fill="#faa231"/><path d="m480.047 57.238c-148.502 22.695-299.592 21.457-448.094-1.238-2.653-11.072-5.303-20.914-7.953-32a1483.053 1483.053 0 0 0 464 0q-3.975 16.629-7.953 33.238z" fill="#fa4231"/><path d="m224 72h64v88h-64z" fill="#fdbf44"/><path d="m80 96h48v24h-48z" fill="#994635"/><path d="m120 264h-32l-8-16v-8h48v8z" fill="#faa231"/><path d="m424 264h-32l-8-16v-8h48v8z" fill="#faa231"/><g fill="#994635"><path d="m384 96h48v24h-48z"/><path d="m432 480v-56h-48v56h-256v-56h-48v56h-64v16h480v-16z"/></g></g></g></svg>