<svg version="1.1" id="Capa_1" xmlns="http://www.w3.org/2000/svg" xmlns:xlink="http://www.w3.org/1999/xlink" x="0px" y="0px"
	 viewBox="0 0 512 512" style="enable-background:new 0 0 512 512;" xml:space="preserve"><g><g><g><path d="m44 8c0 3-4 8-4 8h-8-8s-4-5-4-8c0-3.31 5.37-6 12-6s12 2.69 12 6z" fill="#d3a06c"/></g><g><ellipse cx="32" cy="8" fill="#e6e9ed" rx="7" ry="2"/></g><g><path d="m52 26.12c-1.57-2.31-3.58-4.33-5.94-5.96l-.24-.16h-19.82-7.82l-.24.16c-1.62 1.12-3.08 2.42-4.33 3.88-.58.66-1.12 1.36-1.61 2.08-.5.73-.95 1.48-1.36 2.26-.28.53-.54 1.07-.77 1.62h44.26c-.58-1.36-1.3-2.66-2.13-3.88z" fill="#ffeaa7"/></g><g><path d="m40 16 5.82 4h-19.82-7.82l5.82-4h8z" fill="#dfb28b"/></g><g><path d="m13 34 13.82 27.62c-10.7-1.93-18.82-11.3-18.82-22.56 0-1.72.19-3.42.57-5.06z" fill="#dfb28b"/></g><g><path d="m37.41 51.17-5.41 10.83-5.41-10.83c1.7.54 3.52.83 5.41.83s3.71-.29 5.41-.83z" fill="#dfb28b"/></g><g><path d="m55.43 34c.38 1.64.57 3.34.57 5.06 0 6.34-2.57 12.07-6.72 16.22-3.23 3.23-7.42 5.5-12.1 6.34l13.82-27.62z" fill="#dfb28b"/></g><g><path d="m40 34c0 1.08-.22 2.11-.61 3.06-.4.98-1 1.86-1.73 2.6-.74.73-1.62 1.33-2.6 1.73-.95.39-1.98.61-3.06.61s-2.11-.22-3.06-.61c-.98-.4-1.86-1-2.6-1.73-.73-.74-1.33-1.62-1.73-2.6-.39-.95-.61-1.98-.61-3.06h-6l2.4 4.8 2.27 4.53 2.99 5.98.93 1.86c1.7.54 3.52.83 5.41.83s3.71-.29 5.41-.83l.93-1.86 2.99-5.98 2.27-4.53 2.4-4.8z" fill="#e6e9ed"/></g><g><path d="m26.59 51.17 5.41 10.83h-1.06c-1.41 0-2.78-.13-4.12-.37v-.01l-13.82-27.62h5l2.4 4.8 2.27 4.53 2.99 5.98z" fill="#b4dd7f"/></g><g><path d="m38.34 49.31 2.99-5.98 2.27-4.53 2.4-4.8h5l-13.82 27.62v.01c-1.34.24-2.71.37-4.12.37h-1.06l5.41-10.83z" fill="#b4dd7f"/></g><g><path d="m55.43 34h-4.43-5-6-4-8-4-6-5-4.43c.31-1.38.74-2.72 1.3-4h6.13.02 11.98 8 .02 11.98 6.13c.56 1.28.99 2.62 1.3 4z" fill="#b4dd7f"/></g><g><path d="m36 34h4c0 1.08-.22 2.11-.61 3.06-.4.98-1 1.86-1.73 2.6-.74.73-1.62 1.33-2.6 1.73-.95.39-1.98.61-3.06.61s-2.11-.22-3.06-.61c-.98-.4-1.86-1-2.6-1.73-.73-.74-1.33-1.62-1.73-2.6-.39-.95-.61-1.98-.61-3.06h4c0 2.21 1.79 4 4 4s4-1.79 4-4z" fill="#ffc729"/></g><g><path d="m28 34h8c0 2.21-1.79 4-4 4s-4-1.79-4-4z" fill="#fcd770"/></g></g><g><path d="m32 11c.819 0 8-.084 8-3s-7.181-3-8-3-8 .084-8 3 7.181 3 8 3zm0-4c3.137 0 5.155.584 5.829 1-.674.416-2.692 1-5.829 1s-5.155-.584-5.829-1c.674-.416 2.692-1 5.829-1z"/><path d="m46.625 19.341-5.194-3.571c1.204-1.642 3.569-5.194 3.569-7.77 0-3.925-5.71-7-13-7s-13 3.075-13 7c0 2.576 2.365 6.128 3.569 7.77l-5.194 3.571c-6.497 4.467-10.375 11.84-10.375 19.723 0 13.199 10.737 23.936 23.936 23.936h2.129c13.198 0 23.935-10.737 23.935-23.936 0-7.883-3.878-15.256-10.375-19.723zm-19.524 15.659c.465 2.279 2.484 4 4.899 4s4.434-1.721 4.899-4h2.021c-.488 3.387-3.401 6-6.92 6s-6.432-2.613-6.92-6zm2.083 0h5.631c-.414 1.161-1.514 2-2.816 2s-2.401-.839-2.815-2zm2.816 24.764-3.555-7.11c1.167.221 2.355.346 3.555.346s2.387-.125 3.555-.346zm-7.025-20.153-2.034 2.034-1.164-2.328 2.347-.972c.247.447.534.869.851 1.266zm1.414 1.414c.397.317.819.604 1.266.852l-2.084 5.03-1.688-3.376zm8.108 1.615 2.748 6.634-.526 1.051c-1.21.348-2.459.561-3.719.634v-8.018c.513-.057 1.013-.161 1.497-.301zm-3.497 8.319c-1.261-.073-2.51-.285-3.719-.634l-.525-1.051 2.748-6.634c.484.14.983.244 1.497.301v8.018zm7.429-4.053-2.084-5.03c.447-.248.869-.534 1.266-.852l2.506 2.506zm2.63-5.261-2.034-2.034c.317-.397.604-.819.852-1.266l2.347.972zm2.061-4.121-2.48-1.027c.14-.484.244-.983.301-1.497h3.441zm-20.061-2.524c.057.513.161 1.013.301 1.497l-2.48 1.027-1.262-2.524zm-5.677 0 12.993 25.986c-.982-.025-1.948-.11-2.894-.26l-12.863-25.726zm29.236 0h2.764l-12.863 25.726c-.946.15-1.912.235-2.894.26zm-36.754-2c.195-.678.42-1.346.678-2h42.915c.259.654.483 1.322.678 2zm1.585-4c.082-.158.169-.314.254-.47.095.162.19.321.301.47zm12.862-12h15.379l2.909 2h-21.197zm14.586 9.862c-.383 1.279-1.538 2.138-2.897 2.138-1.654 0-3-1.346-3-3 0-.551.449-1 1-1s1 .449 1 1v1h2v-1c0-1.654-1.346-3-3-3-.549 0-1.057.159-1.5.417-.366-.917-.917-1.738-1.611-2.417h10.474c-.666.706-1.178 1.569-1.471 2.543zm-6.896 2.106c.008.011.018.021.026.032h-.052c.008-.011.018-.021.026-.032zm-6.001-7.968c2.757 0 5 2.243 5 5 0 1.654-1.346 3-3 3-1.653 0-3-1.346-3.004-3.085 0-.242.093-.47.264-.641.176-.177.415-.274.674-.274h.127c.253 0 .491.099.67.279s.277.418.275.672l-.006 1.043 2 .012.006-1.044c.004-.79-.3-1.534-.857-2.094-.557-.559-1.299-.868-2.088-.868h-.127c-.793 0-1.536.306-2.09.862-.548.55-.85 1.281-.848 2.143.002 1.128.395 2.158 1.029 2.995h-4.006c.344-.462.62-.983.794-1.563l.996-3.319c.559-1.865 2.243-3.118 4.191-3.118zm25.996 8c.111-.149.206-.308.3-.47.086.156.172.311.254.47zm-1.036-2.61c-.191 1.483-1.43 2.61-2.96 2.61-1.653 0-3-1.346-3.004-3.085 0-.242.093-.47.264-.641.176-.177.415-.274.674-.274h.127c.253 0 .491.099.67.279s.277.418.275.672l-.006 1.043 2 .012.006-1.044c.004-.79-.3-1.534-.857-2.094-.557-.559-1.299-.868-2.088-.868h-.127c-.793 0-1.536.306-2.09.862-.548.55-.85 1.281-.848 2.143.002 1.128.395 2.158 1.029 2.995h-4.006c.344-.462.62-.983.794-1.563l.996-3.319c.511-1.705 1.997-2.904 3.747-3.082 2.13 1.476 3.947 3.296 5.404 5.354zm-18.96-23.39c6.482 0 11 2.635 11 5 0 1.99-2.298 5.43-3.489 7h-15.022c-1.191-1.569-3.489-5.006-3.489-7 0-2.365 4.518-5 11-5zm-13.506 18h2.868c-.662.704-1.175 1.563-1.469 2.543l-.996 3.319c-.383 1.279-1.538 2.138-2.897 2.138-1.53 0-2.769-1.127-2.96-2.61.334-.472.69-.928 1.061-1.373.478.062.899.47.899.983v1h2v-1c0-1.088-.587-2.033-1.456-2.559.903-.889 1.887-1.709 2.95-2.441zm-9.494 18.064c0-1.377.131-2.736.381-4.064h3.001l12.584 25.167c-9.202-2.607-15.966-11.077-15.966-21.103zm30.034 21.103 12.584-25.167h3.001c.25 1.328.381 2.687.381 4.064 0 10.026-6.764 18.496-15.966 21.103z"/></g></g></svg>